HIERARCHY
ROOT Hips
{
	OFFSET 0.000000 0.000000 0.000000
	CHANNELS 6 Xposition Yposition Zposition Xrotation Yrotation Zrotation
	JOINT LeftUpLeg_virtual
	{
		OFFSET 0.000000 0.000000 0.000000
		CHANNELS 3 Xrotation Yrotation Zrotation
		JOINT LeftUpLeg
		{
			OFFSET 11.394100 -6.187798 -0.413800
			CHANNELS 3 Xrotation Yrotation Zrotation
			JOINT LeftLeg
			{
				OFFSET 0.430247 -32.302673 3.732800
				CHANNELS 3 Xrotation Yrotation Zrotation
				JOINT LeftFoot
				{
					OFFSET -0.430247 -48.264931 -6.423300
					CHANNELS 3 Xrotation Yrotation Zrotation
					JOINT LeftToeBase
					{
						OFFSET 4.230900 -16.068199 23.438400
						CHANNELS 3 Xrotation Yrotation Zrotation
						JOINT LeftToe_End
						{
							OFFSET 4.510700 0.695400 19.974600
							CHANNELS 3 Xrotation Yrotation Zrotation
							End Site
							{
								OFFSET 0 0 0
							}
						}
					}
				}
			}
		}
	}
	JOINT RightUpLeg_virtual
	{
		OFFSET 0.000000 0.000000 0.000000
		CHANNELS 3 Xrotation Yrotation Zrotation
		JOINT RightUpLeg
		{
			OFFSET -11.333700 -6.187798 -0.413800
			CHANNELS 3 Xrotation Yrotation Zrotation
			JOINT RightLeg
			{
				OFFSET -0.430392 -32.302628 3.733000
				CHANNELS 3 Xrotation Yrotation Zrotation
				JOINT RightFoot
				{
					OFFSET 0.430392 -48.264973 -6.423500
					CHANNELS 3 Xrotation Yrotation Zrotation
					JOINT RightToeBase
					{
						OFFSET -4.230900 -16.068199 23.438400
						CHANNELS 3 Xrotation Yrotation Zrotation
						JOINT RightToe_End
						{
							OFFSET -4.510700 0.695400 19.974600
							CHANNELS 3 Xrotation Yrotation Zrotation
							End Site
							{
								OFFSET 0 0 0
							}
						}
					}
				}
			}
		}
	}
	JOINT Spine_virtual
	{
		OFFSET 0.000000 0.000000 0.000000
		CHANNELS 3 Xrotation Yrotation Zrotation
		JOINT Spine
		{
			OFFSET -0.002400 12.777504 0.315300
			CHANNELS 3 Xrotation Yrotation Zrotation
			JOINT Spine1
			{
				OFFSET -0.002067 5.816869 0.032633
				CHANNELS 3 Xrotation Yrotation Zrotation
				JOINT Spine1_split
				{
					OFFSET -0.002067 5.816869 0.032633
					CHANNELS 3 Xrotation Yrotation Zrotation
					JOINT Spine2
					{
						OFFSET -0.002067 5.816869 0.032633
						CHANNELS 3 Xrotation Yrotation Zrotation
						JOINT Neck_virtual
						{
							OFFSET 0.000000 0.000000 0.000000
							CHANNELS 3 Xrotation Yrotation Zrotation
							JOINT Neck
							{
								OFFSET -0.003700 21.199493 -0.826900
								CHANNELS 3 Xrotation Yrotation Zrotation
								JOINT Head
								{
									OFFSET 0.000000 20.442200 4.834800
									CHANNELS 3 Xrotation Yrotation Zrotation
									JOINT HeadTop_End
									{
										OFFSET 0.000000 34.668396 4.968400
										CHANNELS 3 Xrotation Yrotation Zrotation
										End Site
										{
											OFFSET 0 0 0
										}
									}
								}
							}
						}
						JOINT LeftShoulder_virtual
						{
							OFFSET 0.000000 0.000000 0.000000
							CHANNELS 3 Xrotation Yrotation Zrotation
							JOINT LeftShoulder
							{
								OFFSET 3.288150 8.794197 -1.372250
								CHANNELS 3 Xrotation Yrotation Zrotation
								JOINT LeftShoulder_split
								{
									OFFSET 3.288150 8.794197 -1.372250
									CHANNELS 3 Xrotation Yrotation Zrotation
									JOINT LeftArm
									{
										OFFSET 11.953299 -2.279007 -0.146200
										CHANNELS 3 Xrotation Yrotation Zrotation
										JOINT LeftForeArm
										{
											OFFSET 18.448900 0.000000 0.000000
											CHANNELS 3 Xrotation Yrotation Zrotation
											JOINT LeftHand
											{
												OFFSET 29.527798 0.000000 0.000000
												CHANNELS 3 Xrotation Yrotation Zrotation
												End Site
												{
													OFFSET 0 0 0
												}
											}
										}
									}
								}
							}
						}
						JOINT RightShoulder_virtual
						{
							OFFSET 0.000000 0.000000 0.000000
							CHANNELS 3 Xrotation Yrotation Zrotation
							JOINT RightShoulder
							{
								OFFSET -3.249400 8.794197 -1.372250
								CHANNELS 3 Xrotation Yrotation Zrotation
								JOINT RightShoulder_split
								{
									OFFSET -3.249400 8.794197 -1.372250
									CHANNELS 3 Xrotation Yrotation Zrotation
									JOINT RightArm
									{
										OFFSET -11.953299 -2.279007 -0.146200
										CHANNELS 3 Xrotation Yrotation Zrotation
										JOINT RightForeArm
										{
											OFFSET -18.448900 0.000000 0.000000
											CHANNELS 3 Xrotation Yrotation Zrotation
											JOINT RightHand
											{
												OFFSET -29.527802 0.000000 0.000000
												CHANNELS 3 Xrotation Yrotation Zrotation
												End Site
												{
													OFFSET 0 0 0
												}
											}
										}
									}
								}
							}
						}
					}
				}
			}
		}
	}
}
MOTION
Frames: 5
Frame Time: 0.03333333
1.673358 104.925453 -1.147774 0.000000 0.000000 0.000000 2.653487 -31.463335 0.984327 -19.172397 15.552662 13.379840 15.664286 13.648729 -0.851464 -0.708030 -3.798856 -4.430271 3.638021 -0.105744 -1.443855 0.000000 0.000000 0.000000 4.057129 -31.067447 1.130321 -15.372456 1.515181 -4.938565 6.895646 6.309252 -3.476025 5.365885 0.156469 2.021229 -5.624976 -0.501100 -2.687235 0.000000 0.000000 0.000000 3.632498 -29.489390 0.710009 8.831825 1.570654 -0.190786 0.811997 -0.803799 2.084980 0.081073 -0.592122 1.012619 0.000000 0.000000 0.000000 1.918385 -0.243005 2.226187 -4.694805 21.139813 -6.183619 -6.132772 13.363990 0.063394 0.000000 0.000000 0.000000 1.523019 -0.621552 2.666772 0.838349 -10.779898 -1.157441 2.329388 -0.270266 1.082005 -59.891743 0.347094 -37.264027 7.167179 -59.975461 9.390463 0.000000 0.000000 0.000000 0.484400 -0.605205 2.817444 4.083361 7.701061 6.999174 -2.563243 -3.209345 -1.822175 -1.544625 2.913201 65.657297 13.032561 24.587651 -4.280567 0.000000 0.000000 0.000000 
1.710410 104.730736 -1.355732 0.000000 0.000000 0.000000 2.665168 -31.925250 1.274159 -19.196790 15.890437 13.267433 15.707150 13.466091 -0.780529 -0.844152 -4.120204 -4.401817 3.272862 -0.063843 -1.467827 0.000000 0.000000 0.000000 4.082691 -31.348103 1.356061 -15.452417 0.979791 -5.224021 7.082477 6.188529 -3.422640 5.545031 0.266023 2.394869 -6.487869 -0.681677 -2.466124 0.000000 0.000000 0.000000 3.487755 -29.536368 0.738965 8.855406 1.531291 -0.318128 0.754767 -0.839557 2.132280 0.209093 -0.808445 1.220568 0.000000 0.000000 0.000000 1.939935 -0.286293 2.307875 -4.339644 21.593804 -6.233923 -6.104558 13.814937 -0.141644 0.000000 0.000000 0.000000 1.379840 -0.648169 2.691703 0.802319 -10.161574 -1.385723 2.282440 -0.508020 1.132500 -59.759238 0.584498 -36.925287 7.125679 -60.058345 9.195584 0.000000 0.000000 0.000000 0.422350 -0.654473 2.893398 3.970623 7.719762 7.333762 -2.548495 -3.607091 -1.761957 -0.841465 2.932706 65.184921 13.111395 24.398078 -4.310874 0.000000 0.000000 0.000000 
1.799244 104.432281 -1.622040 0.000000 0.000000 0.000000 2.932687 -31.892974 1.628848 -19.372968 15.981166 13.078175 15.927516 13.139659 -0.668132 -0.783842 -4.792623 -4.404362 3.036165 0.008422 -1.448418 0.000000 0.000000 0.000000 4.100624 -31.298423 1.698904 -15.520674 0.345923 -5.719916 7.837234 5.939451 -3.369774 4.808803 0.440850 2.947582 -6.233517 -0.895259 -2.296882 0.000000 0.000000 0.000000 3.470047 -29.369328 0.867106 8.707993 1.435754 -0.567388 0.694188 -0.841398 2.216529 0.414125 -1.032655 1.293918 0.000000 0.000000 0.000000 1.870671 -0.296744 2.438811 -4.116206 22.657650 -6.221809 -5.915151 15.365468 -0.523144 0.000000 0.000000 0.000000 1.265936 -0.641998 2.733850 0.774303 -9.015563 -1.505955 2.301849 -0.745732 1.147796 -59.494103 1.322816 -36.221292 6.627949 -60.383981 8.581756 0.000000 0.000000 0.000000 0.400874 -0.657781 2.991917 3.895290 7.804510 7.740632 -2.536811 -3.590586 -1.706128 0.123904 2.714778 64.529032 13.194477 24.353232 -4.317535 0.000000 0.000000 0.000000 
1.904127 104.122116 -1.799171 0.000000 0.000000 0.000000 3.393442 -31.345883 1.945801 -19.719238 15.842777 12.896522 16.110861 12.844172 -0.547022 -0.625693 -5.675117 -4.368436 3.108609 0.108412 -1.436194 0.000000 0.000000 0.000000 4.231938 -30.799222 2.033497 -15.572182 -0.201191 -6.283709 8.798577 5.589126 -3.314288 3.367079 0.761621 3.879584 -5.134877 -1.054659 -2.470898 0.000000 0.000000 0.000000 3.584659 -28.986356 1.006297 8.442500 1.324377 -0.838547 0.628890 -0.773677 2.300608 0.360152 -1.173997 1.207093 0.000000 0.000000 0.000000 1.691112 -0.244944 2.569068 -4.034813 24.234657 -6.217538 -5.594590 17.777639 -1.062317 0.000000 0.000000 0.000000 1.210900 -0.574664 2.757174 0.756924 -7.448155 -1.514792 2.377198 -0.834354 1.268686 -59.086512 2.528311 -35.105530 5.726655 -60.806859 7.623173 0.000000 0.000000 0.000000 0.414919 -0.577369 3.066780 3.851367 7.976994 8.133938 -2.399109 -3.147979 -1.694340 1.103384 2.363247 63.867398 13.281158 24.422438 -4.294312 0.000000 0.000000 0.000000 
2.025119 103.830109 -1.862160 0.000000 0.000000 0.000000 3.951853 -30.418340 2.137262 -20.338881 15.503964 12.739633 16.254701 12.623854 -0.422771 -0.445376 -6.617738 -4.282112 3.450745 0.227402 -1.453207 0.000000 0.000000 0.000000 4.527730 -29.952350 2.251177 -15.640493 -0.619468 -6.761860 9.780074 5.209424 -3.299803 1.646567 1.192890 5.580524 -4.450419 -1.092811 -3.172114 0.000000 0.000000 0.000000 3.850804 -28.457384 1.124752 8.066384 1.262273 -1.022421 0.564743 -0.618203 2.345000 0.301640 -1.270704 1.068461 0.000000 0.000000 0.000000 1.445330 -0.099374 2.637308 -4.032219 26.248171 -6.302965 -5.226393 20.783962 -1.739426 0.000000 0.000000 0.000000 1.217874 -0.407851 2.728251 0.749019 -5.607663 -1.440496 2.456789 -0.814543 1.438913 -58.531368 4.113802 -33.638016 4.676838 -61.240152 6.537575 0.000000 0.000000 0.000000 0.468793 -0.384693 3.068730 3.816909 8.195789 8.468384 -2.180861 -2.459028 -1.773931 1.904915 1.971465 63.316680 13.352902 24.501799 -4.245192 0.000000 0.000000 0.000000 
